<svg width="19" height="19" viewBox="0 0 19 19" fill="none" xmlns="http://www.w3.org/2000/svg">
<path d="M10.2499 8.74998H17.4692C17.2769 6.82049 16.508 5.18138 15.1625 3.83266C13.8169 2.48393 12.1794 1.71662 10.2499 1.53073V8.74998ZM8.74998 17.4692V1.53073C6.68844 1.71662 4.96472 2.57015 3.57882 4.0913C2.19291 5.61246 1.49996 7.41534 1.49996 9.49996C1.49996 11.5846 2.19291 13.3875 3.57882 14.9086C4.96472 16.4298 6.68844 17.2833 8.74998 17.4692ZM10.2499 17.4692C12.1794 17.2936 13.8195 16.5288 15.1702 15.175C16.5208 13.8211 17.2871 12.1794 17.4692 10.2499H10.2499V17.4692ZM9.50164 18.9999C8.18771 18.9999 6.95267 18.7506 5.79653 18.2519C4.64039 17.7533 3.63471 17.0765 2.77948 16.2217C1.92426 15.3668 1.2472 14.3616 0.748323 13.206C0.249441 12.0503 0 10.8156 0 9.50164C0 8.18771 0.24933 6.95267 0.74799 5.79653C1.24665 4.64039 1.9234 3.63471 2.77825 2.77948C3.6331 1.92426 4.63833 1.24721 5.79396 0.748323C6.94958 0.249441 8.18436 0 9.49829 0C10.8122 0 12.0445 0.249679 13.1951 0.749036C14.3458 1.24839 15.3512 1.9282 16.2115 2.78845C17.0717 3.6487 17.7515 4.65376 18.2509 5.80362C18.7502 6.95348 18.9999 8.18661 18.9999 9.503C18.9999 10.8035 18.7506 12.0312 18.2519 13.1861C17.7533 14.3409 17.0765 15.3495 16.2217 16.2117C15.3668 17.0738 14.3616 17.7541 13.206 18.2524C12.0503 18.7508 10.8156 18.9999 9.50164 18.9999Z" fill="#004AC6"/>
</svg>
